#!OML:ASF E:\Mandelcareful walks\Project 1\Capture day 1\Session 1\Subject1.ASF
:FULLY-SPECIFIED
:DEGREES
611
root -3.28988 14.7875 -1.82293 -341.024 77.508 3.50061
lowerback 27.3376 2.70994 -6.69924
upperback 5.54078 1.73013 -3.07855
thorax -8.99638 1.12867 -0.218451
lowerneck -33.0285 6.28507 3.21552
upperneck 14.9433 10.4923 -13.2296
head 11.1618 3.31504 -3.42639
rclavicle 3.85642e-014 1.51076e-014
rhumerus -28.9561 8.89687 -89.95
rradius 80.8676
rwrist -14.9137
rhand -20.462 -14.8008
rfingers 7.12502
rthumb 5.89383 -44.6989
lclavicle 3.85642e-014 1.51076e-014
lhumerus -19.2712 -25.8255 78.2376
lradius 86.6723
lwrist 8.4192
lhand -30.5063 -15.2071
lfingers 7.12502
lthumb -3.80636 14.7386
rfemur -54.2103 -11.235 4.16375
rtibia 59.8672
rfoot -12.2462 -2.80729
rtoes -14.6826
lfemur -52.1583 14.405 -16.1574
ltibia 67.3021
lfoot -25.4466 5.38653
ltoes -13.358
612
root -3.24432 14.8061 -1.74767 -339.698 77.937 4.74216
lowerback 27.4451 2.59128 -6.69189
upperback 5.51942 1.56914 -3.11524
thorax -9.06584 1.05609 -0.21303
lowerneck -32.8662 6.19962 3.16829
upperneck 14.7087 10.3382 -13.1303
head 11.0218 3.27429 -3.41013
rclavicle -3.61788e-014 2.8625e-014
rhumerus -29.1761 9.06235 -90.0203
rradius 80.6312
rwrist -14.8337
rhand -20.0124 -14.8251
rfingers 7.12502
rthumb 6.3278 -44.7106
lclavicle -3.61788e-014 2.8625e-014
lhumerus -19.0516 -24.7111 79.0477
lradius 86.8924
lwrist 8.21538
lhand -30.1517 -14.6041
lfingers 7.12502
lthumb -3.46395 15.3475
rfemur -54.6377 -10.6152 3.99799
rtibia 58.5781
rfoot -12.1945 -2.22278
rtoes -14.8744
lfemur -51.9173 14.2088 -16.1221
ltibia 66.9084
lfoot -25.3778 5.24929
ltoes -13.6782
613
root -3.19336 14.8238 -1.66505 -338.796 78.3723 5.53022
lowerback 27.5238 2.50581 -6.52242
upperback 5.43539 1.49059 -3.13033
thorax -9.19458 1.01734 -0.304971
lowerneck -32.5716 6.02834 3.13169
upperneck 14.5186 10.059 -12.9963
head 10.864 3.18385 -3.40868
rclavicle 6.75868e-015 -7.95139e-015
rhumerus -29.5696 9.13177 -90.1203
rradius 80.2839
rwrist -14.5929
rhand -19.5801 -14.8536
rfingers 7.12502
rthumb 6.74522 -44.7262
lclavicle 6.75868e-015 -7.95139e-015
lhumerus -18.8637 -23.9666 79.919
lradius 86.9861
lwrist 7.95254
lhand -29.8499 -14.233
lfingers 7.12502
lthumb -3.17248 15.7232
rfemur -55.0506 -10.1501 4.13645
rtibia 57.3412
rfoot -12.2563 -1.97127
rtoes -15.5051
lfemur -51.6507 14.0005 -15.9174
ltibia 66.4851
lfoot -25.2784 5.11714
ltoes -13.5773
614
root -3.1392 14.8425 -1.57153 -337.696 78.685 6.51484
lowerback 27.5041 2.46122 -6.52074
upperback 5.34512 1.42833 -3.09918
thorax -9.28583 0.989296 -0.251473
lowerneck -32.2862 5.92099 3.10866
upperneck 14.3658 9.88521 -12.9305
head 10.7387 3.13072 -3.41363
rclavicle -1.63003e-014 7.95139e-016
rhumerus -29.9147 9.36341 -90.2025
rradius 79.7563
rwrist -14.3037
rhand -18.891 -15.2711
rfingers 7.12502
rthumb 7.41038 -45.1213
lclavicle -1.63003e-014 7.95139e-016
lhumerus -18.789 -23.3796 80.8293
lradius 86.9523
lwrist 7.64893
lhand -29.6523 -13.8819
lfingers 7.12502
lthumb -2.98168 16.077
rfemur -55.3891 -9.67438 4.3023
rtibia 56.2541
rfoot -12.2744 -2.05393
rtoes -15.7439
lfemur -51.3135 13.8681 -15.7051
ltibia 66.0214
lfoot -25.1573 5.00275
ltoes -13.393
615
root -3.07782 14.8681 -1.46528 -336.209 79.117 7.93379
lowerback 27.3524 2.36343 -6.52911
upperback 5.332 1.32119 -3.01759
thorax -9.2216 0.939065 -0.112403
lowerneck -32.142 5.88588 3.06982
upperneck 14.2525 9.8558 -12.9834
head 10.6735 3.12102 -3.43114
rclavicle 3.18055e-015 6.67916e-014
rhumerus -30.1292 9.67835 -90.2112
rradius 79.1019
rwrist -14.159
rhand -18.2313 -16.1491
rfingers 7.12502
rthumb 8.04713 -45.9759
lclavicle 3.18055e-015 6.67916e-014
lhumerus -18.7958 -22.9439 81.7461
lradius 86.7438
lwrist 7.41449
lhand -29.6082 -13.7601
lfingers 7.12502
lthumb -2.93911 16.1994
rfemur -55.5122 -9.51618 4.55733
rtibia 55.5766
rfoot -12.2476 -2.64063
rtoes -15.3538
lfemur -50.8174 13.6395 -15.4903
ltibia 65.4905
lfoot -25.1415 4.88206
ltoes -13.7069
616
root -3.01629 14.8935 -1.34841 -335.273 79.6525 8.78366
lowerback 27.3701 2.2563 -6.48638
upperback 5.20514 1.19607 -2.83219
thorax -9.37294 0.882081 0.11089
lowerneck -32.2449 5.89151 2.9649
upperneck 14.4193 9.92302 -12.9441
head 10.7503 3.13805 -3.3886
rclavicle 5.1684e-015 4.77083e-014
rhumerus -30.4345 10.0487 -90.1922
rradius 78.2236
rwrist -13.9298
rhand -17.8355 -16.7448
rfingers 7.12502
rthumb 8.42911 -46.5566
lclavicle 5.1684e-015 4.77083e-014
lhumerus -19.0823 -22.5939 82.7431
lradius 86.4566
lwrist 7.17734
lhand -29.697 -13.5106
lfingers 7.12502
lthumb -3.02489 16.4477
rfemur -55.6165 -9.58292 5.14084
rtibia 55.2939
rfoot -11.8507 -3.86235
rtoes -14.5115
lfemur -50.3148 13.3717 -15.0714
ltibia 64.8865
lfoot -25.0974 4.86037
ltoes -14.7396
617
root -2.95253 14.9175 -1.2215 -334.567 80.2392 9.35345
lowerback 26.9771 2.04903 -6.20267
upperback 5.22412 1.04949 -2.76772
thorax -9.144 0.801271 0.0855364
lowerneck -32.0712 5.91248 2.96416
upperneck 14.2732 9.8902 -12.7898
head 10.6518 3.15568 -3.33689
rclavicle 3.97569e-015 3.77691e-014
rhumerus -30.4587 10.1618 -90.3649
rradius 77.0637
rwrist -13.4917
rhand -17.2454 -17.0953
rfingers 7.12502
rthumb 8.99853 -46.8834
lclavicle 3.97569e-015 3.77691e-014
lhumerus -19.2666 -22.5395 83.3376
lradius 86.2358
lwrist 7.00364
lhand -29.6855 -13.0768
lfingers 7.12502
lthumb -3.01376 16.8816
rfemur -55.3998 -9.73329 5.75533
rtibia 55.5303
rfoot -12.3192 -5.02428
rtoes -13.2799
lfemur -49.8618 13.0373 -14.5174
ltibia 64.2089
lfoot -24.8803 4.94368
ltoes -15.7644
